<svg width="807" height="202" xmlns="http://www.w3.org/2000/svg" xmlns:xlink="http://www.w3.org/1999/xlink" xml:space="preserve" overflow="hidden"><defs><clipPath id="clip0"><rect x="1475" y="939" width="807" height="202"/></clipPath></defs><g clip-path="url(#clip0)" transform="translate(-1475 -939)"><path d="M1476 1028.5C1476 981.28 1514.28 943 1561.5 943 1608.72 943 1647 981.28 1647 1028.5 1647 1075.72 1608.72 1114 1561.5 1114 1514.28 1114 1476 1075.72 1476 1028.5Z" fill="#E7563B" fill-rule="evenodd" fill-opacity="1"/><text fill="#000000" fill-opacity="1" font-family="Impact,Impact_MSFontService,sans-serif" font-style="normal" font-variant="normal" font-weight="700" font-stretch="condensed" font-size="92" text-anchor="start" direction="ltr" writing-mode="lr-tb" unicode-bidi="normal" text-decoration="none" transform="matrix(1 0 0 1 1535.7 1065)">D</text><path d="M1682 1028.5C1682 981.28 1720.06 943 1767 943 1813.94 943 1852 981.28 1852 1028.5 1852 1075.72 1813.94 1114 1767 1114 1720.06 1114 1682 1075.72 1682 1028.5Z" fill="#EC9E3A" fill-rule="evenodd" fill-opacity="1"/><text fill="#000000" fill-opacity="1" font-family="Impact,Impact_MSFontService,sans-serif" font-style="normal" font-variant="normal" font-weight="700" font-stretch="condensed" font-size="92" text-anchor="start" direction="ltr" writing-mode="lr-tb" unicode-bidi="normal" text-decoration="none" transform="matrix(1 0 0 1 1741.51 1065)">D</text><path d="M1892 1028.5C1892 981.28 1930.28 943 1977.5 943 2024.72 943 2063 981.28 2063 1028.5 2063 1075.72 2024.72 1114 1977.5 1114 1930.28 1114 1892 1075.72 1892 1028.5Z" fill="#7CB06C" fill-rule="evenodd" fill-opacity="1"/><text fill="#000000" fill-opacity="1" font-family="Impact,Impact_MSFontService,sans-serif" font-style="normal" font-variant="normal" font-weight="700" font-stretch="condensed" font-size="92" text-anchor="start" direction="ltr" writing-mode="lr-tb" unicode-bidi="normal" text-decoration="none" transform="matrix(1 0 0 1 1953.64 1065)">S</text><path d="M2107 1028.5C2107 981.28 2145.28 943 2192.5 943 2239.72 943 2278 981.28 2278 1028.5 2278 1075.72 2239.72 1114 2192.5 1114 2145.28 1114 2107 1075.72 2107 1028.5Z" fill="#41AAA8" fill-rule="evenodd" fill-opacity="1"/><text fill="#000000" fill-opacity="1" font-family="Impact,Impact_MSFontService,sans-serif" font-style="normal" font-variant="normal" font-weight="700" font-stretch="condensed" font-size="92" text-anchor="start" direction="ltr" writing-mode="lr-tb" unicode-bidi="normal" text-decoration="none" transform="matrix(1 0 0 1 2166.9 1065)">H</text></g></svg>