<svg width="752" height="193" xmlns="http://www.w3.org/2000/svg" xmlns:xlink="http://www.w3.org/1999/xlink" xml:space="preserve" overflow="hidden"><defs><clipPath id="clip0"><rect x="1507" y="939" width="752" height="193"/></clipPath></defs><g clip-path="url(#clip0)" transform="translate(-1507 -939)"><path d="M1512 1028.5C1512 981.28 1550.28 943 1597.5 943 1644.72 943 1683 981.28 1683 1028.5 1683 1075.72 1644.72 1114 1597.5 1114 1550.28 1114 1512 1075.72 1512 1028.5Z" fill="#E7563B" fill-rule="evenodd" fill-opacity="1"/><text fill="#000000" fill-opacity="1" font-family="Impact,Impact_MSFontService,sans-serif" font-style="normal" font-variant="normal" font-weight="700" font-stretch="condensed" font-size="83" text-anchor="start" direction="ltr" writing-mode="lr-tb" unicode-bidi="normal" text-decoration="none" transform="matrix(1 0 0 1 1574.94 1061)">D</text><path d="M1705 1028.5C1705 981.28 1743.06 943 1790 943 1836.94 943 1875 981.28 1875 1028.5 1875 1075.72 1836.94 1114 1790 1114 1743.06 1114 1705 1075.72 1705 1028.5Z" fill="#EC9E3A" fill-rule="evenodd" fill-opacity="1"/><text fill="#000000" fill-opacity="1" font-family="Impact,Impact_MSFontService,sans-serif" font-style="normal" font-variant="normal" font-weight="700" font-stretch="condensed" font-size="83" text-anchor="start" direction="ltr" writing-mode="lr-tb" unicode-bidi="normal" text-decoration="none" transform="matrix(1 0 0 1 1767.01 1061)">D</text><path d="M1897 1028.5C1897 981.28 1935.06 943 1982 943 2028.94 943 2067 981.28 2067 1028.5 2067 1075.72 2028.94 1114 1982 1114 1935.06 1114 1897 1075.72 1897 1028.5Z" fill="#7CB06C" fill-rule="evenodd" fill-opacity="1"/><text fill="#000000" fill-opacity="1" font-family="Impact,Impact_MSFontService,sans-serif" font-style="normal" font-variant="normal" font-weight="700" font-stretch="condensed" font-size="83" text-anchor="start" direction="ltr" writing-mode="lr-tb" unicode-bidi="normal" text-decoration="none" transform="matrix(1 0 0 1 1960.51 1061)">S</text><path d="M2089 1028.5C2089 981.28 2127.06 943 2174 943 2220.94 943 2259 981.28 2259 1028.5 2259 1075.72 2220.94 1114 2174 1114 2127.06 1114 2089 1075.72 2089 1028.5Z" fill="#41AAA8" fill-rule="evenodd" fill-opacity="1"/><text fill="#000000" fill-opacity="1" font-family="Impact,Impact_MSFontService,sans-serif" font-style="normal" font-variant="normal" font-weight="700" font-stretch="condensed" font-size="83" text-anchor="start" direction="ltr" writing-mode="lr-tb" unicode-bidi="normal" text-decoration="none" transform="matrix(1 0 0 1 2151.15 1061)">H</text></g></svg>